# xmcd
# 
# Track frame offsets:
#     150
#     17617
#     36002
#     55657
#     74455
#     95327
#     114757
#     134417
#     153892
#     172200
# 
# Disc length: 2568
# 
# Revision: 0
# Processed by: cddbd v1.5.2PL0 Copyright (c) Steve Scherf et al.
# Submitted via: fre:ac v1.0.31
# 
DISCID=7a0a060a
DTITLE=Thomas Hardin Trio - Jazzで聴くBach
DYEAR=2000
DGENRE=Jazz
TTITLE0=メヌエット
TTITLE1=インヴェンソン第1番
TTITLE2=G線上のアリア
TTITLE3=ガヴォット
TTITLE4=チェンバロ協奏曲第5番第2楽章「恋するガリア」
TTITLE5=小フーガ ト長調
TTITLE6=ポロネーズ
TTITLE7=シチリアーナ
TTITLE8=トッカータとフーガ
TTITLE9=ロンド
EXTD=
EXTT0=
EXTT1=
EXTT2=
EXTT3=
EXTT4=
EXTT5=
EXTT6=
EXTT7=
EXTT8=
EXTT9=
PLAYORDER=
